PathFileType	4	(X/Y/Z)	16_1_13_p1_0-227_filt_butterworth.trc
DataRate	CameraRate	NumFrames	NumMarkers	Units	OrigDataRate	OrigDataStartFrame	OrigNumFrames
57.0	57.0	5	27	m	57.0	85	227
Frame#	Time	RHip			RKnee			RAnkle			RBigToe			RSmallToe			RHeel			LHip			LKnee			LAnkle			LBigToe			LSmallToe			LHeel			Neck			Head			Nose			RShoulder			RElbow			RWrist			RThumb			RIndex			RPinky			LShoulder			LElbow			LWrist			LThumb			LIndex			LPinky			
		X1	Y1	Z1	X2	Y2	Z2	X3	Y3	Z3	X4	Y4	Z4	X5	Y5	Z5	X6	Y6	Z6	X7	Y7	Z7	X8	Y8	Z8	X9	Y9	Z9	X10	Y10	Z10	X11	Y11	Z11	X12	Y12	Z12	X13	Y13	Z13	X14	Y14	Z14	X15	Y15	Z15	X16	Y16	Z16	X17	Y17	Z17	X18	Y18	Z18	X19	Y19	Z19	X20	Y20	Z20	X21	Y21	Z21	X22	Y22	Z22	X23	Y23	Z23	X24	Y24	Z24	X25	Y25	Z25	X26	Y26	Z26	X27	Y27	Z27	
85	1.4912280701754386	0.3350757681153032	0.9230850771645879	0.550467402695829	0.3330367401590408	0.4863210282914459	0.6396433244628321	0.3358784344358445	0.07917534881949781	0.7159399922134128	0.3969006841320235	0.05742164874910279	0.5377925825803052	0.4308273620446792	0.0592894556446433	0.5878143417948393	0.31538724765508136	0.04360042855954757	0.7539553723374265	0.10410084234848486	0.9320216336382598	0.5257186634535214	0.06332442259515247	0.49966712202065294	0.6444113917939562	0.025646824586656437	0.08647002684513219	0.7457615754771625	-0.012231438886229927	0.08587521923713723	0.5026127396755617	-0.04718268873595723	0.07759738612501783	0.570111916747542	0.025387045341227495	-0.02171193707274566	0.8413980122394046	0.248396015350282	1.5970341644253652	0.5279648729185717	0.25908452857136655	1.8481896682537617	0.4583259310009189	0.2511584171924365	1.7065262052488965	0.41497218644756123	0.4150950828069091	1.4889186942048833	0.5306641767414932	0.46664606810154063	1.1962063939982819	0.585949832610614	0.5165196856451054	0.9174009948431501	0.48905483784045695	0.5141894203872366	0.8197763949300984	0.38001004661510546	0.5231419301196006	0.7888490100905239	0.43023644061982225	0.5033800825124954	0.7577261982024984	0.5388479020275372	0.08426262186818648	1.5215349141584489	0.4913072441200969	-0.1769160098256043	1.469549264433284	0.41055893898967544	0.037642689654436956	1.5385718426146748	0.37940397037916224	0.16738478934477496	1.5021561383932422	0.4059987082868065	0.19482946913554722	1.532989982067243	0.38435106576339473	0.12468815971676481	1.5055356935024922	0.385323957765612	
86	1.5087719298245614	0.3358157011545912	0.9228034477991074	0.551268805535482	0.33369786894099296	0.48647624189387134	0.6395952819308798	0.3359476733752018	0.0792810305000898	0.71616398685385	0.3969991752405986	0.05839069113184464	0.5373825835873012	0.4293417568728767	0.058543528437459386	0.5901317739336781	0.3151204142675993	0.042968635916130156	0.755406021547162	0.10434017997741939	0.9312498496869227	0.5251172380750996	0.06370603472152615	0.4993193156909279	0.6445305980153233	0.02579149162163808	0.08663135410167391	0.7453851329794616	-0.014221605758610133	0.08633111558240428	0.5045366796663767	-0.04919319702521874	0.07667429497555575	0.5739450845990735	0.02523678139054022	-0.02089094730685654	0.840473970256162	0.24945349587854448	1.5971191208717221	0.5274408001049083	0.2601769832677275	1.8486277622505185	0.4580639574298384	0.25538950186955883	1.706594624566444	0.4201470462320911	0.4149938707337211	1.4890278618981476	0.5306015011537656	0.4676175367671983	1.1951339356055044	0.588657816898681	0.5185769981511151	0.9180735067952461	0.4932154789058034	0.5192920541250214	0.8215422068962305	0.3787576886907354	0.5287204784826289	0.7898609913736503	0.4350726726775112	0.5052798065231394	0.7598217989220885	0.5389426277650781	0.08375346948506493	1.518678790379476	0.49110498161536753	-0.18342810111377744	1.4701236529854933	0.42630101712069624	0.028595377546354436	1.5396107340634149	0.38515845661675346	0.15670429842133338	1.5051996974744817	0.4048885602982779	0.1866323395306568	1.535617294357744	0.38314333133851264	0.11865547532590687	1.509174424337188	0.3926544430061019	
87	1.5263157894736843	0.3363068453874886	0.9226681172696896	0.5516475981128219	0.33434104197034453	0.4866125384070353	0.6393649435310053	0.3359554334741231	0.07946689007074623	0.716205991820108	0.39735633762916023	0.05983157619965522	0.5353498202464634	0.42835241175221284	0.05884529546200319	0.5906155169992164	0.31487087232019945	0.04234344030001059	0.7566910538819955	0.10449488892583485	0.9306461148776557	0.5246687331875186	0.06411724686697054	0.49899753357549087	0.644653748507229	0.02581604340631125	0.08649462015536791	0.7451291617367609	-0.016042177040772355	0.08673400451807214	0.505706145570128	-0.051322144479762785	0.07573431059910947	0.5773180899151943	0.02512756986236703	-0.02031698130628646	0.8398179687608218	0.2505572779542585	1.5973411247916374	0.5257674795101036	0.2614761039412762	1.8486967131141454	0.45799946012827897	0.25931724112846566	1.7061677793333887	0.4227511786143214	0.4148996596870775	1.4890730184036722	0.5306002450006477	0.46835041464662774	1.1939969244057689	0.5908177866128904	0.5203340715863496	0.9196482701034487	0.49637869095038195	0.524007698355524	0.8223960787414553	0.38107353681303435	0.5337299222207352	0.790516525654517	0.44022378968275483	0.5071112347094864	0.7616074853488989	0.5379621325371692	0.08331508285974393	1.5164717476524032	0.4895472480184997	-0.18904038467492543	1.4705581083609403	0.4426987621548641	0.02250000377980161	1.54192740579405	0.3928940114373634	0.1475044636145572	1.5088694098351447	0.4022906628542371	0.17840199572286997	1.5387831273114807	0.3830078553770978	0.11456500585960207	1.5138431249766369	0.40160648221428397	
88	1.543859649122807	0.336538491394607	0.9226432139779709	0.5516338755340421	0.3349700230044382	0.4867304799091357	0.6389451808132168	0.33590507995879	0.07966589977933716	0.7160752174139455	0.3980282641873452	0.06151245349884339	0.5316879309670359	0.42821989910594477	0.060072763655430635	0.5890259069571451	0.3146461243700526	0.04174025695824442	0.7577752724610903	0.1045504515321363	0.9301950507776984	0.5244138898038024	0.06454505677960636	0.49870956644121317	0.6447917348934256	0.025713540911336312	0.08599564963129705	0.7453154263893191	-0.01726931384731407	0.0868557353249477	0.5066761072753649	-0.05334219406576096	0.07481452085674566	0.5798183800385014	0.025079540190139103	-0.02010878628817579	0.8394910431409345	0.25191488233163173	1.5976198035241733	0.5229444287099048	0.26297862832120966	1.8484313141760074	0.4579575595183942	0.26318452083087623	1.7052368629205434	0.42212142023173393	0.4148750314238388	1.4890733159348333	0.5306058061423983	0.46876308432166347	1.1929642481380323	0.5920953051921165	0.522145483142425	0.9216998366163736	0.4984646178650427	0.5289166751934715	0.8217913790194129	0.3875976024697224	0.538263942236455	0.7906688665630227	0.44530098814715946	0.508834987463749	0.7632086292206374	0.5355545868449211	0.08288826466028203	1.5145828416102471	0.48729922555459043	-0.19356961137631995	1.4705394707896002	0.45748945810270475	0.018261104574651278	1.5452440626904431	0.40152312278668356	0.1398278734044668	1.513048823539049	0.3988200876189507	0.16955735908799446	1.5423343356084285	0.383726326693663	0.11105632679231714	1.5197546563891928	0.4102961861949491	
89	1.5614035087719298	0.33648889324910486	0.9226748460351212	0.5512237413745789	0.3355965979605915	0.48683293399264504	0.6383344212356884	0.3358398206338973	0.07983326744495137	0.7159080054041022	0.398864084065739	0.06305482905042822	0.5271227292829188	0.42910341327216006	0.06195202625801233	0.5860600253518694	0.3144540244304167	0.04117456838078125	0.7586177900176995	0.10449729114621577	0.9298857377417998	0.524372182314881	0.06497566202083054	0.4984651367147904	0.6449574080903028	0.025537794493413767	0.08523127569559404	0.7460173189862918	-0.01744622350686836	0.08694291262529252	0.5072930780033649	-0.054844685058745686	0.07416806087516645	0.5808319245466166	0.025102917148942288	-0.020316914615333227	0.8395337784066033	0.2535859896095408	1.5977840901331404	0.5195784729983147	0.26483551397078786	1.8481254775052192	0.4578934987679664	0.26706143203594457	1.703950641058547	0.4180068389967604	0.4148986995624815	1.489067893997544	0.5305697121667183	0.4688705386072023	1.1923350771901198	0.5924374924701797	0.5242179650295841	0.9234680079210726	0.4993770802110035	0.5345457405481837	0.8198863225634976	0.3973128321887398	0.5424602703089445	0.7902976924178609	0.44989823325967293	0.5106027191422267	0.7646640189094711	0.5319353972613536	0.08254973320920678	1.5128056745528844	0.4852872446515603	-0.19688302977463462	1.4698352230497522	0.4697559920214676	0.014206670984127711	1.549220603007178	0.4096372958633343	0.13356521009928196	1.5177484993883477	0.3949009920020776	0.1600012481710106	1.5460076660863855	0.385135516613892	0.10650240611235195	1.526546034329895	0.41686817372627083	
